<svg width="60" height="59" viewBox="0 0 60 59" fill="none" xmlns="http://www.w3.org/2000/svg">
<g filter="url(#filter0_dd_4280_95)">
<g clip-path="url(#clip0_4280_95)">
<path d="M12.9348 2.78836H46.5499C51.6464 2.78836 55.7669 6.9391 55.7669 12.0729V44.6235C55.7669 49.7573 51.6464 53.908 46.5499 53.908H12.9348C7.83833 53.908 3.71777 49.7573 3.71777 44.6235V12.0729C3.71777 6.9391 7.83833 2.78836 12.9348 2.78836Z" fill="#00005B"/>
<path d="M24.6241 33.3728H16.5565L14.9083 38.5285C14.8649 38.7251 14.6914 38.8561 14.4962 38.8343H10.4191C10.1805 38.8343 10.1154 38.7032 10.1805 38.4411L17.1638 18.2772C17.2288 18.0587 17.2939 17.8621 17.3806 17.6C17.4674 17.1412 17.5108 16.6606 17.5108 16.18C17.4891 16.0707 17.5758 15.9615 17.6842 15.9397H17.7493H23.3012C23.453 15.9397 23.5615 16.0052 23.5832 16.1144L31.499 38.3974C31.564 38.6377 31.499 38.7469 31.2821 38.7469H26.7495C26.5977 38.7688 26.4459 38.6595 26.4025 38.5066L24.6241 33.2636V33.3728ZM17.8144 29.0254H23.3229C23.1928 28.5667 23.0193 28.0205 22.8241 27.4525C22.6289 26.8627 22.4337 26.2291 22.2385 25.5738C22.0217 24.8965 21.8265 24.2412 21.6096 23.5639C21.3927 22.8867 21.1976 22.2532 21.0241 21.6196C20.8506 21.0079 20.6988 20.4399 20.547 19.9156H20.5036C20.3084 20.855 20.0698 21.7944 19.7662 22.7338C19.4409 23.7824 19.1156 24.8747 18.7686 25.967C18.4867 27.0811 18.1397 28.1079 17.8144 29.0254Z" fill="#9999FF"/>
<path d="M44.2727 31.4066H37.3979C37.4846 32.0839 37.7015 32.7611 38.0702 33.3509C38.4605 33.9408 39.0027 34.3995 39.6533 34.6617C40.5208 35.0331 41.4751 35.2297 42.4293 35.2078C43.1883 35.186 43.9474 35.1205 44.6848 34.9675C45.3571 34.8802 46.0077 34.7054 46.6149 34.4651C46.7233 34.3777 46.7884 34.4214 46.7884 34.6399V37.9823C46.7884 38.0697 46.7667 38.1571 46.745 38.2444C46.7017 38.31 46.6583 38.3537 46.5932 38.3974C45.8992 38.7032 45.1836 38.9217 44.4245 39.0527C43.4052 39.2494 42.3859 39.3367 41.3449 39.3149C39.6967 39.3149 38.3087 39.0527 37.181 38.5503C36.1183 38.0915 35.1858 37.3706 34.4484 36.4749C33.7544 35.6229 33.2556 34.6617 32.952 33.6131C32.6484 32.5863 32.4966 31.5159 32.4966 30.4236C32.4966 29.2439 32.6701 28.086 33.0388 26.9501C33.3858 25.8578 33.9279 24.8528 34.6653 23.9571C35.381 23.0833 36.2701 22.3842 37.2894 21.8818C38.3087 21.3793 39.5232 21.2046 40.9112 21.2046C42.0606 21.1827 43.21 21.4012 44.2727 21.8818C45.1619 22.275 45.9426 22.8648 46.5498 23.6295C47.1137 24.3722 47.5691 25.2024 47.8511 26.1199C48.133 26.9937 48.2631 27.8894 48.2631 28.7851C48.2631 29.3094 48.2414 29.7682 48.2198 30.1833C48.1764 30.5983 48.1547 30.9042 48.133 31.1008C48.1113 31.2537 47.9812 31.3848 47.8294 31.3848C47.6993 31.3848 47.4607 31.4066 47.1137 31.4285C46.7667 31.4722 46.3547 31.494 45.8559 31.494C45.3571 31.494 44.8366 31.4066 44.2727 31.4066ZM37.3979 28.2171H41.9739C42.5377 28.2171 42.9498 28.2171 43.21 28.1953C43.3835 28.1734 43.557 28.1297 43.7088 28.0205V27.802C43.7088 27.5181 43.6655 27.2559 43.5787 26.9937C43.1883 25.7704 42.0389 24.9402 40.7594 24.9839C39.5666 24.9184 38.4389 25.5519 37.875 26.6442C37.6147 27.1467 37.4629 27.671 37.3979 28.2171Z" fill="#9999FF"/>
</g>
</g>
<defs>
<filter id="filter0_dd_4280_95" x="-4.64916e-05" y="-4.29153e-06" width="59.6754" height="58.3694" filterUnits="userSpaceOnUse" color-interpolation-filters="sRGB">
<feFlood flood-opacity="0" result="BackgroundImageFix"/>
<feColorMatrix in="SourceAlpha" type="matrix" values="0 0 0 0 0 0 0 0 0 0 0 0 0 0 0 0 0 0 127 0" result="hardAlpha"/>
<feMorphology radius="0.929455" operator="dilate" in="SourceAlpha" result="effect1_dropShadow_4280_95"/>
<feOffset dy="0.929455"/>
<feGaussianBlur stdDeviation="1.39418"/>
<feColorMatrix type="matrix" values="0 0 0 0 0 0 0 0 0 0 0 0 0 0 0 0 0 0 0.15 0"/>
<feBlend mode="normal" in2="BackgroundImageFix" result="effect1_dropShadow_4280_95"/>
<feColorMatrix in="SourceAlpha" type="matrix" values="0 0 0 0 0 0 0 0 0 0 0 0 0 0 0 0 0 0 127 0" result="hardAlpha"/>
<feOffset dy="0.929455"/>
<feGaussianBlur stdDeviation="0.929455"/>
<feColorMatrix type="matrix" values="0 0 0 0 0 0 0 0 0 0 0 0 0 0 0 0 0 0 0.3 0"/>
<feBlend mode="normal" in2="effect1_dropShadow_4280_95" result="effect2_dropShadow_4280_95"/>
<feBlend mode="normal" in="SourceGraphic" in2="effect2_dropShadow_4280_95" result="shape"/>
</filter>
<clipPath id="clip0_4280_95">
<rect width="52.2398" height="50.9338" fill="white" transform="translate(3.71777 2.78836)"/>
</clipPath>
</defs>
</svg>
