<svg width="60" height="60" viewBox="0 0 60 60" fill="none" xmlns="http://www.w3.org/2000/svg">
<g filter="url(#filter0_dd_4280_112)">
<rect x="3.71777" y="2.78835" width="52.0491" height="52.0491" rx="11.1534" fill="white"/>
<g clip-path="url(#clip0_4280_112)">
<path d="M23.8182 47.1621C27.2165 47.1621 29.9746 44.4041 29.9746 41.0058V34.8494H23.8182C20.4199 34.8494 17.6619 37.6075 17.6619 41.0058C17.6619 44.4041 20.4199 47.1621 23.8182 47.1621Z" fill="#0ACF83"/>
<path d="M17.6619 28.693C17.6619 25.2947 20.4199 22.5367 23.8182 22.5367H29.9746V34.8494H23.8182C20.4199 34.8494 17.6619 32.0913 17.6619 28.693Z" fill="#A259FF"/>
<path d="M17.6621 16.3803C17.6621 12.982 20.4202 10.2239 23.8185 10.2239H29.9748V22.5367H23.8185C20.4202 22.5367 17.6621 19.7786 17.6621 16.3803Z" fill="#F24E1E"/>
<path d="M29.9746 10.2239H36.131C39.5293 10.2239 42.2873 12.982 42.2873 16.3803C42.2873 19.7786 39.5293 22.5367 36.131 22.5367H29.9746V10.2239Z" fill="#FF7262"/>
<path d="M42.2873 28.693C42.2873 32.0913 39.5293 34.8494 36.131 34.8494C32.7327 34.8494 29.9746 32.0913 29.9746 28.693C29.9746 25.2947 32.7327 22.5367 36.131 22.5367C39.5293 22.5367 42.2873 25.2947 42.2873 28.693Z" fill="#1ABCFE"/>
</g>
</g>
<defs>
<filter id="filter0_dd_4280_112" x="-2.16365e-05" y="-9.53674e-07" width="59.4847" height="59.4847" filterUnits="userSpaceOnUse" color-interpolation-filters="sRGB">
<feFlood flood-opacity="0" result="BackgroundImageFix"/>
<feColorMatrix in="SourceAlpha" type="matrix" values="0 0 0 0 0 0 0 0 0 0 0 0 0 0 0 0 0 0 127 0" result="hardAlpha"/>
<feOffset dy="0.929449"/>
<feGaussianBlur stdDeviation="0.929449"/>
<feColorMatrix type="matrix" values="0 0 0 0 0 0 0 0 0 0 0 0 0 0 0 0 0 0 0.3 0"/>
<feBlend mode="normal" in2="BackgroundImageFix" result="effect1_dropShadow_4280_112"/>
<feColorMatrix in="SourceAlpha" type="matrix" values="0 0 0 0 0 0 0 0 0 0 0 0 0 0 0 0 0 0 127 0" result="hardAlpha"/>
<feMorphology radius="0.929449" operator="dilate" in="SourceAlpha" result="effect2_dropShadow_4280_112"/>
<feOffset dy="0.929449"/>
<feGaussianBlur stdDeviation="1.39417"/>
<feColorMatrix type="matrix" values="0 0 0 0 0 0 0 0 0 0 0 0 0 0 0 0 0 0 0.15 0"/>
<feBlend mode="normal" in2="effect1_dropShadow_4280_112" result="effect2_dropShadow_4280_112"/>
<feBlend mode="normal" in="SourceGraphic" in2="effect2_dropShadow_4280_112" result="shape"/>
</filter>
<clipPath id="clip0_4280_112">
<rect width="24.6304" height="36.9382" fill="white" transform="translate(17.6594 10.2239)"/>
</clipPath>
</defs>
</svg>
