<svg width="40" height="40" viewBox="0 0 40 40" fill="none" xmlns="http://www.w3.org/2000/svg">
<g clip-path="url(#clip0_4280_468)">
<mask id="mask0_4280_468" style="mask-type:luminance" maskUnits="userSpaceOnUse" x="0" y="0" width="40" height="40">
<path d="M40 0H0V40H40V0Z" fill="white"/>
</mask>
<g mask="url(#mask0_4280_468)">
<path d="M36.6667 11.6668H25V8.3335H36.6667V11.6668ZM39.5433 28.3335C38.8067 30.4952 36.1617 33.3335 31.0417 33.3335C25.9183 33.3335 21.7683 30.4518 21.7683 23.8752C21.7683 17.3585 25.6433 14.0085 30.8783 14.0085C36.015 14.0085 39.1517 16.9785 39.8367 21.3852C39.9667 22.2285 40.0183 23.3652 39.995 24.9518H26.6167C26.8333 30.3035 32.4217 30.4718 34.2633 28.3335H39.5433ZM26.7333 21.6668H35.0083C34.8333 19.0885 33.115 17.9685 30.88 17.9685C28.4367 17.9685 27.085 19.2485 26.7333 21.6668ZM10.7767 33.3135H0V8.3685H11.5883C20.715 8.5035 20.8883 17.4418 16.1217 19.8785C21.89 21.9785 22.0833 33.3135 10.7767 33.3135ZM5 18.3335H10.9733C15.1533 18.3335 15.8167 13.3335 10.4533 13.3335H5V18.3335ZM10.6517 23.3335H5V28.3602H10.5683C15.66 28.3602 15.3483 23.3335 10.6517 23.3335Z" fill="#919191"/>
</g>
</g>
<defs>
<clipPath id="clip0_4280_468">
<rect width="40" height="40" fill="white"/>
</clipPath>
</defs>
</svg>
