<svg width="40" height="40" viewBox="0 0 40 40" fill="none" xmlns="http://www.w3.org/2000/svg">
<path d="M23.0134 17.4485L34.8001 3.3335H32.0068L21.7701 15.5885L13.5967 3.3335H4.16675L16.5301 21.8668L4.16675 36.6668H6.96008L17.7701 23.7252L26.4034 36.6668H35.8334L23.0134 17.4485ZM19.1867 22.0285L17.9334 20.1835L7.96675 5.50016H12.2584L20.3017 17.3502L21.5534 19.1952L32.0084 34.5985H27.7184L19.1851 22.0302L19.1867 22.0285Z" fill="#919191"/>
<path d="M19.1867 22.0285L17.9334 20.1835L7.96675 5.50016H12.2584L20.3017 17.3502L21.5534 19.1952L32.0084 34.5985H27.7184L19.1851 22.0302L19.1867 22.0285Z" fill="#919191"/>
</svg>
