<svg width="40" height="40" viewBox="0 0 40 40" fill="none" xmlns="http://www.w3.org/2000/svg">
<path fill-rule="evenodd" clip-rule="evenodd" d="M27.4084 5.0765C25.4751 4.98817 24.8951 4.96984 20.0001 4.96984C15.1051 4.96984 14.5251 4.98817 12.5917 5.0765C10.8034 5.15817 9.83342 5.4565 9.18675 5.70817C8.33175 6.0415 7.72008 6.4365 7.07842 7.07817C6.47016 7.66992 6.00205 8.39031 5.70842 9.1865C5.45675 9.83317 5.15841 10.8032 5.07675 12.5915C4.98841 14.5248 4.97008 15.1048 4.97008 19.9998C4.97008 24.8948 4.98841 25.4748 5.07675 27.4082C5.15841 29.1965 5.45675 30.1665 5.70842 30.8132C6.00175 31.6082 6.47008 32.3298 7.07842 32.9215C7.67008 33.5298 8.39175 33.9982 9.18675 34.2915C9.83342 34.5432 10.8034 34.8415 12.5917 34.9232C14.5251 35.0115 15.1034 35.0298 20.0001 35.0298C24.8967 35.0298 25.4751 35.0115 27.4084 34.9232C29.1967 34.8415 30.1667 34.5432 30.8134 34.2915C31.6684 33.9582 32.2801 33.5632 32.9217 32.9215C33.5301 32.3298 33.9984 31.6082 34.2918 30.8132C34.5434 30.1665 34.8418 29.1965 34.9234 27.4082C35.0117 25.4748 35.0301 24.8948 35.0301 19.9998C35.0301 15.1048 35.0117 14.5248 34.9234 12.5915C34.8418 10.8032 34.5434 9.83317 34.2918 9.1865C33.9584 8.3315 33.5634 7.71984 32.9217 7.07817C32.33 6.46996 31.6096 6.00186 30.8134 5.70817C30.1667 5.4565 29.1967 5.15817 27.4084 5.0765ZM16.3939 11.2938C15.2506 11.7673 14.2118 12.4615 13.3367 13.3365C11.5695 15.1037 10.5767 17.5006 10.5767 19.9998C10.5767 22.4991 11.5695 24.8959 13.3367 26.6632C15.104 28.4304 17.5008 29.4232 20.0001 29.4232C22.4993 29.4232 24.8962 28.4304 26.6634 26.6632C27.5385 25.7881 28.2326 24.7493 28.7061 23.606C29.1797 22.4627 29.4235 21.2373 29.4235 19.9998C29.4235 18.7623 29.1797 17.537 28.7061 16.3937C28.2326 15.2504 27.5385 14.2115 26.6634 13.3365C25.7884 12.4615 24.7495 11.7673 23.6063 11.2938C22.463 10.8202 21.2376 10.5765 20.0001 10.5765C18.7626 10.5765 17.5372 10.8202 16.3939 11.2938ZM32.0239 11.2565C31.9039 11.5293 31.7303 11.7753 31.5134 11.9798C31.0917 12.3777 30.5315 12.5955 29.9519 12.587C29.3722 12.5786 28.8186 12.3445 28.4087 11.9346C27.9987 11.5246 27.7647 10.9711 27.7563 10.3914C27.7478 9.81171 27.9656 9.25155 28.3634 8.82984C28.568 8.613 28.8139 8.4394 29.0868 8.31933C29.3596 8.19926 29.6538 8.13515 29.9519 8.13081C30.2499 8.12646 30.5458 8.18197 30.8221 8.29403C31.0983 8.4061 31.3492 8.57245 31.56 8.78324C31.7708 8.99402 31.9372 9.24496 32.0492 9.52119C32.1613 9.79742 32.2168 10.0933 32.2124 10.3914C32.2081 10.6895 32.144 10.9836 32.0239 11.2565Z" fill="#919191"/>
<path fill-rule="evenodd" clip-rule="evenodd" d="M20.0001 1.6665C15.0201 1.6665 14.3967 1.6865 12.4417 1.7765C10.4917 1.8665 9.15675 2.1765 7.99008 2.62817C6.76754 3.08891 5.66015 3.81067 4.74508 4.74317C3.81195 5.65869 3.08962 6.76664 2.62841 7.98984C2.17675 9.1565 1.86508 10.4898 1.77675 12.4432C1.68841 14.3965 1.66675 15.0198 1.66675 19.9998C1.66675 24.9782 1.68675 25.6015 1.77675 27.5598C1.86675 29.5098 2.17675 30.8432 2.62841 32.0098C3.08894 33.233 3.81071 34.341 4.74341 35.2565C5.65978 36.1886 6.76828 36.9098 7.99175 37.3698C9.15842 37.8232 10.4917 38.1348 12.4417 38.2232C14.3967 38.3115 15.0201 38.3332 20.0001 38.3332C24.9801 38.3332 25.6034 38.3132 27.5601 38.2232C29.5101 38.1332 30.8434 37.8232 32.0101 37.3698C33.2317 36.9098 34.3401 36.1898 35.2567 35.2565C36.1889 34.3402 36.9101 33.2317 37.3701 32.0082C37.8234 30.8415 38.1351 29.5082 38.2234 27.5582C38.3117 25.6032 38.3334 24.9798 38.3334 19.9998C38.3334 15.0215 38.3134 14.3982 38.2234 12.4398C38.1334 10.4898 37.8234 9.1565 37.3701 7.98984C36.9101 6.7665 36.1901 5.65984 35.2567 4.74484C34.3401 3.8115 33.2317 3.08984 32.0101 2.62817C30.8434 2.1765 29.5101 1.86484 27.5567 1.7765C25.6034 1.68817 24.9801 1.6665 20.0001 1.6665ZM20.0001 4.96984C24.8951 4.96984 25.4751 4.98817 27.4084 5.0765C29.1967 5.15817 30.1667 5.4565 30.8134 5.70817C31.6096 6.00186 32.33 6.46996 32.9217 7.07817C33.5634 7.71984 33.9584 8.3315 34.2918 9.1865C34.5434 9.83317 34.8418 10.8032 34.9234 12.5915C35.0117 14.5248 35.0301 15.1048 35.0301 19.9998C35.0301 24.8948 35.0117 25.4748 34.9234 27.4082C34.8418 29.1965 34.5434 30.1665 34.2918 30.8132C33.9984 31.6082 33.5301 32.3298 32.9217 32.9215C32.2801 33.5632 31.6684 33.9582 30.8134 34.2915C30.1667 34.5432 29.1967 34.8415 27.4084 34.9232C25.4751 35.0115 24.8967 35.0298 20.0001 35.0298C15.1034 35.0298 14.5251 35.0115 12.5917 34.9232C10.8034 34.8415 9.83342 34.5432 9.18675 34.2915C8.39175 33.9982 7.67008 33.5298 7.07842 32.9215C6.47008 32.3298 6.00175 31.6082 5.70842 30.8132C5.45675 30.1665 5.15841 29.1965 5.07675 27.4082C4.98841 25.4748 4.97008 24.8948 4.97008 19.9998C4.97008 15.1048 4.98841 14.5248 5.07675 12.5915C5.15841 10.8032 5.45675 9.83317 5.70842 9.1865C6.00205 8.39031 6.47016 7.66992 7.07842 7.07817C7.72008 6.4365 8.33175 6.0415 9.18675 5.70817C9.83342 5.4565 10.8034 5.15817 12.5917 5.0765C14.5251 4.98817 15.1051 4.96984 20.0001 4.96984ZM21.7783 25.8594C20.4224 26.2694 18.9662 26.1959 17.6584 25.6515C16.8231 25.3051 16.075 24.7779 15.4679 24.1077C14.8609 23.4375 14.41 22.6411 14.1476 21.7757C13.8853 20.9103 13.8182 19.9976 13.9509 19.1031C14.0837 18.2087 14.4132 17.3548 14.9156 16.6029C15.418 15.8511 16.0808 15.22 16.8564 14.7551C17.632 14.2901 18.501 14.003 19.4009 13.9142C20.3008 13.8254 21.2092 13.9373 22.0606 14.2417C22.9121 14.5462 23.6855 15.0356 24.3251 15.6748C25.3284 16.6748 25.9535 17.9921 26.0935 19.4017C26.2335 20.8113 25.8798 22.2258 25.0928 23.4036C24.3057 24.5814 23.1342 25.4494 21.7783 25.8594ZM16.3939 11.2938C15.2506 11.7673 14.2118 12.4615 13.3367 13.3365C11.5695 15.1037 10.5767 17.5006 10.5767 19.9998C10.5767 22.4991 11.5695 24.8959 13.3367 26.6632C15.104 28.4304 17.5008 29.4232 20.0001 29.4232C22.4993 29.4232 24.8962 28.4304 26.6634 26.6632C27.5385 25.7881 28.2326 24.7493 28.7061 23.606C29.1797 22.4627 29.4235 21.2373 29.4235 19.9998C29.4235 18.7623 29.1797 17.537 28.7061 16.3937C28.2326 15.2504 27.5385 14.2115 26.6634 13.3365C25.7884 12.4615 24.7495 11.7673 23.6063 11.2938C22.463 10.8202 21.2376 10.5765 20.0001 10.5765C18.7626 10.5765 17.5372 10.8202 16.3939 11.2938Z" fill="#919191"/>
</svg>
