<svg width="53" height="51" viewBox="0 0 53 51" fill="none" xmlns="http://www.w3.org/2000/svg">
<path d="M9.21703 0H42.8321C47.9286 0 52.0491 4.15074 52.0491 9.28456V41.8351C52.0491 46.9689 47.9286 51.1197 42.8321 51.1197H9.21703C4.12056 51.1197 0 46.9689 0 41.8351V9.28456C0 4.15074 4.12056 0 9.21703 0Z" fill="white"/>
<g clip-path="url(#clip0_6519_639)">
<path fill-rule="evenodd" clip-rule="evenodd" d="M43.9995 15L32.5124 37.4561H21.7227L26.5301 28.1494H26.3144C22.3483 33.2978 16.4309 36.687 7.99951 37.4561V28.2781C7.99951 28.2781 13.3933 27.9596 16.5641 24.6259H7.99951V15.0002H17.6252V22.9172L17.8413 22.9163L21.7747 15.0002H29.0543V22.867L29.2704 22.8666L33.3514 15H43.9995Z" fill="#146EF5"/>
</g>
<defs>
<clipPath id="clip0_6519_639">
<rect width="36" height="22.4667" fill="white" transform="translate(8 15)"/>
</clipPath>
</defs>
</svg>
