<svg width="60" height="60" viewBox="0 0 60 60" fill="none" xmlns="http://www.w3.org/2000/svg">
<g filter="url(#filter0_dd_4280_80)">
<g clip-path="url(#clip0_4280_80)">
<path d="M46.8686 2.78836H12.6161C7.70169 2.78836 3.71777 6.77227 3.71777 11.6867V45.9392C3.71777 50.8536 7.70169 54.8375 12.6161 54.8375H46.8686C51.783 54.8375 55.7669 50.8536 55.7669 45.9392V11.6867C55.7669 6.77227 51.783 2.78836 46.8686 2.78836Z" fill="#330000"/>
<path d="M29.1406 16.5606H21.352L12.4058 40.6323H19.3762L20.5379 37.0367H29.4862L30.6479 40.6323H37.8307L29.1427 16.5606H29.1406ZM25.01 31.0303H22.4762L25.01 23.1833L27.5437 31.0303H25.01Z" fill="#FF9A00"/>
<path d="M45.1697 21.6801H38.7197V40.6322H45.1697V21.6801Z" fill="#FF9A00"/>
<path d="M45.3821 18.2532C45.4009 20.0208 43.9706 21.27 41.9469 21.2533C39.9211 21.27 38.4929 20.0208 38.5117 18.2532C38.4929 16.4856 39.9232 15.2365 41.9469 15.2531C43.9727 15.2365 45.4009 16.4856 45.3821 18.2532Z" fill="#FF9A00"/>
</g>
</g>
<defs>
<filter id="filter0_dd_4280_80" x="-2.16365e-05" y="1.43051e-05" width="59.4847" height="59.4847" filterUnits="userSpaceOnUse" color-interpolation-filters="sRGB">
<feFlood flood-opacity="0" result="BackgroundImageFix"/>
<feColorMatrix in="SourceAlpha" type="matrix" values="0 0 0 0 0 0 0 0 0 0 0 0 0 0 0 0 0 0 127 0" result="hardAlpha"/>
<feMorphology radius="0.929449" operator="dilate" in="SourceAlpha" result="effect1_dropShadow_4280_80"/>
<feOffset dy="0.929449"/>
<feGaussianBlur stdDeviation="1.39417"/>
<feColorMatrix type="matrix" values="0 0 0 0 0 0 0 0 0 0 0 0 0 0 0 0 0 0 0.15 0"/>
<feBlend mode="normal" in2="BackgroundImageFix" result="effect1_dropShadow_4280_80"/>
<feColorMatrix in="SourceAlpha" type="matrix" values="0 0 0 0 0 0 0 0 0 0 0 0 0 0 0 0 0 0 127 0" result="hardAlpha"/>
<feOffset dy="0.929449"/>
<feGaussianBlur stdDeviation="0.929449"/>
<feColorMatrix type="matrix" values="0 0 0 0 0 0 0 0 0 0 0 0 0 0 0 0 0 0 0.3 0"/>
<feBlend mode="normal" in2="effect1_dropShadow_4280_80" result="effect2_dropShadow_4280_80"/>
<feBlend mode="normal" in="SourceGraphic" in2="effect2_dropShadow_4280_80" result="shape"/>
</filter>
<clipPath id="clip0_4280_80">
<rect width="52.0491" height="52.0491" fill="white" transform="translate(3.71777 2.78836)"/>
</clipPath>
</defs>
</svg>
