<svg width="60" height="60" viewBox="0 0 60 60" fill="none" xmlns="http://www.w3.org/2000/svg">
<g filter="url(#filter0_dd_4280_105)">
<rect x="3.71777" y="2.78836" width="52.0491" height="52.0491" rx="11.1534" fill="url(#paint0_linear_4280_105)"/>
<g clip-path="url(#clip0_4280_105)">
<path d="M49.9062 31.2952C49.8367 31.2952 49.7733 31.3402 49.7406 31.4342C49.3214 32.6304 48.755 33.342 48.2888 33.342C48.0209 33.342 47.9125 33.0435 47.9125 32.5752C47.9125 31.4036 48.6139 28.9191 48.9676 27.7863C49.0085 27.6493 49.0351 27.5266 49.0351 27.4224C49.0351 27.0932 48.8552 26.9316 48.4094 26.9316C47.9289 26.9316 47.4116 27.1197 46.9085 28.001C46.7347 27.224 46.2092 26.8846 45.4751 26.8846C44.6266 26.8846 43.8066 27.4305 43.1318 28.3159C42.457 29.2013 41.6637 29.4917 41.0666 29.3486C41.496 28.2975 41.6555 27.5123 41.6555 26.9296C41.6555 26.0155 41.2036 25.4635 40.4736 25.4635C39.3633 25.4635 38.7233 26.5227 38.7233 27.6371C38.7233 28.4979 39.1138 29.3833 39.9726 29.8127C39.2529 31.4404 38.2018 32.9126 37.8031 32.9126C37.2878 32.9126 37.1365 30.3914 37.1651 28.5879C37.1835 27.5532 37.2694 27.5001 37.2694 27.1872C37.2694 27.0073 37.1529 26.8846 36.6846 26.8846C35.5927 26.8846 35.2553 27.8088 35.2042 28.8701C35.1877 29.2734 35.1245 29.6734 35.0161 30.0622C34.5601 31.6898 33.6195 32.9249 33.006 32.9249C32.7218 32.9249 32.6441 32.6407 32.6441 32.2685C32.6441 31.0968 33.3005 29.6328 33.3005 28.3834C33.3005 27.4653 32.8977 26.8846 32.139 26.8846C31.2455 26.8846 30.0636 27.9479 28.9451 29.9395C29.3131 28.4141 29.4645 26.9377 28.3746 26.9377C28.1382 26.9413 27.906 27.0016 27.6978 27.1136C27.6279 27.1463 27.5694 27.1993 27.53 27.2656C27.4906 27.332 27.4721 27.4087 27.4769 27.4857C27.5812 29.1093 26.1683 33.2684 24.8289 33.2684C24.5856 33.2684 24.467 33.0046 24.467 32.5793C24.467 31.4056 25.1663 28.9273 25.518 27.7925C25.563 27.6452 25.5875 27.5185 25.5875 27.408C25.5875 27.0972 25.3953 26.9377 24.9598 26.9377C24.4813 26.9377 23.9619 27.1197 23.461 28.001C23.2851 27.224 22.7596 26.8846 22.0255 26.8846C20.8211 26.8846 19.4757 28.1585 18.8847 29.8189C18.0934 32.0354 16.4985 34.1763 14.3514 34.1763C12.4028 34.1763 11.3742 32.5548 11.3742 29.9927C11.3742 26.2936 14.0897 23.2714 16.1038 23.2714C17.0669 23.2714 17.527 23.8849 17.527 24.8255C17.527 25.9644 16.8911 26.494 16.8911 26.9275C16.8911 27.0604 17.0015 27.1913 17.2203 27.1913C18.0954 27.1913 19.126 26.1628 19.126 24.76C19.126 23.3573 17.9871 22.3308 15.973 22.3308C12.644 22.3308 9.29468 25.6802 9.29468 29.9722C9.29468 33.387 10.9796 35.4461 13.8934 35.4461C15.8809 35.4461 17.617 33.9002 18.5535 32.0967C18.6598 33.5915 19.3387 34.3726 20.3733 34.3726C21.2935 34.3726 22.0378 33.8246 22.6062 32.8615C22.825 33.8696 23.4058 34.3624 24.1603 34.3624C25.0252 34.3624 25.7491 33.8144 26.4382 32.7961C26.428 33.5956 26.6099 34.3481 27.3031 34.3481C27.6303 34.3481 28.0208 34.2724 28.0904 33.9861C28.8204 30.968 30.6239 28.5041 31.1759 28.5041C31.3395 28.5041 31.3845 28.6615 31.3845 28.8476C31.3845 29.6675 30.8058 31.3484 30.8058 32.4219C30.8058 33.5813 31.2986 34.3481 32.3169 34.3481C33.4457 34.3481 34.5928 32.9658 35.3575 30.9455C35.5968 32.8329 36.1141 34.3562 36.9238 34.3562C37.9176 34.3562 39.6823 32.2644 40.7517 30.0499C41.1709 30.1031 41.8007 30.0888 42.4059 29.6614C42.1483 30.3137 41.997 31.0273 41.997 31.741C41.997 33.796 42.9785 34.3726 43.823 34.3726C44.7411 34.3726 45.4854 33.8246 46.0559 32.8615C46.244 33.7305 46.7245 34.3603 47.6079 34.3603C48.9901 34.3603 50.1904 32.9474 50.1904 31.788C50.1904 31.4813 50.0596 31.2952 49.9062 31.2952ZM21.2158 33.2336C20.6576 33.2336 20.4388 32.6713 20.4388 31.833C20.4388 30.3771 21.4346 27.9458 22.4876 27.9458C22.9477 27.9458 23.1215 28.4877 23.1215 29.1502C23.1215 30.6286 22.1748 33.2336 21.2158 33.2336ZM40.3366 28.8885C40.0033 28.4918 39.8827 27.952 39.8827 27.4714C39.8827 26.8784 40.0994 26.3775 40.3591 26.3775C40.6188 26.3775 40.6985 26.6331 40.6985 26.9889C40.6985 27.5839 40.4859 28.4529 40.3366 28.8885ZM44.6654 33.2336C44.1072 33.2336 43.8884 32.5875 43.8884 31.833C43.8884 30.4282 44.8842 27.9458 45.9454 27.9458C46.4055 27.9458 46.5691 28.4836 46.5691 29.1502C46.5691 30.6286 45.6387 33.2336 44.6654 33.2336Z" fill="white"/>
</g>
</g>
<defs>
<filter id="filter0_dd_4280_105" x="-2.16365e-05" y="1.43051e-05" width="59.4847" height="59.4847" filterUnits="userSpaceOnUse" color-interpolation-filters="sRGB">
<feFlood flood-opacity="0" result="BackgroundImageFix"/>
<feColorMatrix in="SourceAlpha" type="matrix" values="0 0 0 0 0 0 0 0 0 0 0 0 0 0 0 0 0 0 127 0" result="hardAlpha"/>
<feMorphology radius="0.929449" operator="dilate" in="SourceAlpha" result="effect1_dropShadow_4280_105"/>
<feOffset dy="0.929449"/>
<feGaussianBlur stdDeviation="1.39417"/>
<feColorMatrix type="matrix" values="0 0 0 0 0 0 0 0 0 0 0 0 0 0 0 0 0 0 0.15 0"/>
<feBlend mode="normal" in2="BackgroundImageFix" result="effect1_dropShadow_4280_105"/>
<feColorMatrix in="SourceAlpha" type="matrix" values="0 0 0 0 0 0 0 0 0 0 0 0 0 0 0 0 0 0 127 0" result="hardAlpha"/>
<feOffset dy="0.929449"/>
<feGaussianBlur stdDeviation="0.929449"/>
<feColorMatrix type="matrix" values="0 0 0 0 0 0 0 0 0 0 0 0 0 0 0 0 0 0 0.3 0"/>
<feBlend mode="normal" in2="effect1_dropShadow_4280_105" result="effect2_dropShadow_4280_105"/>
<feBlend mode="normal" in="SourceGraphic" in2="effect2_dropShadow_4280_105" result="shape"/>
</filter>
<linearGradient id="paint0_linear_4280_105" x1="29.7423" y1="-30.2071" x2="29.7423" y2="76.2148" gradientUnits="userSpaceOnUse">
<stop offset="0.201923" stop-color="#57DAF8"/>
<stop offset="1" stop-color="#9804E2"/>
</linearGradient>
<clipPath id="clip0_4280_105">
<rect width="40.8957" height="13.1633" fill="white" transform="translate(9.29468 22.3068)"/>
</clipPath>
</defs>
</svg>
