<svg width="60" height="60" viewBox="0 0 60 60" fill="none" xmlns="http://www.w3.org/2000/svg">
<g filter="url(#filter0_dd_4280_108)">
<rect x="3.71777" y="2.78836" width="52.0491" height="52.0491" rx="11.1534" fill="white"/>
<g clip-path="url(#clip0_4280_108)">
<path d="M15.899 13.4858L33.8992 12.1562C36.1104 11.9666 36.6783 12.0944 38.0687 13.1052L43.8146 17.153C44.7622 17.8491 45.0778 18.0388 45.0778 18.7967V40.9967C45.0778 42.388 44.5726 43.211 42.8039 43.3366L21.9009 44.6027C20.5737 44.6655 19.9416 44.4758 19.2464 43.59L15.0152 38.0878C14.2562 37.0751 13.9417 36.3171 13.9417 35.431V15.6979C13.9417 14.5603 14.4469 13.6117 15.899 13.4858Z" fill="white"/>
<path fill-rule="evenodd" clip-rule="evenodd" d="M33.8992 12.1566L15.899 13.4861C14.4469 13.6117 13.9417 14.5606 13.9417 15.6979V35.431C13.9417 36.3168 14.2562 37.0748 15.0152 38.0878L19.2464 43.5897C19.9416 44.4755 20.5737 44.6655 21.9009 44.6024L42.8042 43.3369C44.5716 43.211 45.0781 42.388 45.0781 40.997V18.7971C45.0781 18.0781 44.7941 17.8709 43.9581 17.2574L38.0687 13.1052C36.6787 12.0944 36.1104 11.9666 33.8992 12.1562V12.1566ZM22.3736 18.4337C20.6667 18.5485 20.2796 18.5746 19.3102 17.7863L16.8457 15.826C16.5952 15.5723 16.7211 15.2558 17.3522 15.1927L34.6562 13.9282C36.1094 13.8013 36.866 14.3078 37.4344 14.7502L40.4021 16.9005C40.529 16.9646 40.8445 17.3429 40.4649 17.3429L22.5948 18.4187L22.3736 18.4337ZM20.3837 40.8073V21.9613C20.3837 21.1383 20.6365 20.7587 21.3931 20.6949L41.9181 19.4932C42.6142 19.4304 42.9288 19.8729 42.9288 20.6946V39.415C42.9288 40.2381 42.8019 40.9342 41.6656 40.997L22.0246 42.1356C20.8883 42.1984 20.384 41.82 20.384 40.8073H20.3837ZM39.772 22.9717C39.8979 23.541 39.772 24.1103 39.2027 24.1754L38.2561 24.3631V38.2774C37.434 38.7198 36.6774 38.9726 36.045 38.9726C35.0342 38.9726 34.7818 38.6561 34.0248 37.7081L27.8342 27.9684V37.3916L29.7926 37.835C29.7926 37.835 29.7926 38.9736 28.2125 38.9736L23.8567 39.2263C23.7298 38.9726 23.8567 38.3405 24.2981 38.2146L25.4357 37.8991V25.4398L23.857 25.312C23.7301 24.7427 24.0457 23.9206 24.9305 23.8569L29.6042 23.5423L36.0453 33.4079V24.6799L34.4035 24.4912C34.2766 23.7941 34.7818 23.2876 35.4129 23.2258L39.772 22.9717Z" fill="black"/>
</g>
</g>
<defs>
<filter id="filter0_dd_4280_108" x="-2.16365e-05" y="1.43051e-05" width="59.4847" height="59.4847" filterUnits="userSpaceOnUse" color-interpolation-filters="sRGB">
<feFlood flood-opacity="0" result="BackgroundImageFix"/>
<feColorMatrix in="SourceAlpha" type="matrix" values="0 0 0 0 0 0 0 0 0 0 0 0 0 0 0 0 0 0 127 0" result="hardAlpha"/>
<feMorphology radius="0.929449" operator="dilate" in="SourceAlpha" result="effect1_dropShadow_4280_108"/>
<feOffset dy="0.929449"/>
<feGaussianBlur stdDeviation="1.39417"/>
<feColorMatrix type="matrix" values="0 0 0 0 0 0 0 0 0 0 0 0 0 0 0 0 0 0 0.15 0"/>
<feBlend mode="normal" in2="BackgroundImageFix" result="effect1_dropShadow_4280_108"/>
<feColorMatrix in="SourceAlpha" type="matrix" values="0 0 0 0 0 0 0 0 0 0 0 0 0 0 0 0 0 0 127 0" result="hardAlpha"/>
<feOffset dy="0.929449"/>
<feGaussianBlur stdDeviation="0.929449"/>
<feColorMatrix type="matrix" values="0 0 0 0 0 0 0 0 0 0 0 0 0 0 0 0 0 0 0.3 0"/>
<feBlend mode="normal" in2="effect1_dropShadow_4280_108" result="effect2_dropShadow_4280_108"/>
<feBlend mode="normal" in="SourceGraphic" in2="effect2_dropShadow_4280_108" result="shape"/>
</filter>
<clipPath id="clip0_4280_108">
<rect width="32.5307" height="32.5307" fill="white" transform="translate(13.9417 12.0828)"/>
</clipPath>
</defs>
</svg>
