<svg width="60" height="59" viewBox="0 0 60 59" fill="none" xmlns="http://www.w3.org/2000/svg">
<g filter="url(#filter0_dd_4280_85)">
<g clip-path="url(#clip0_4280_85)">
<path d="M12.9348 2.78836H46.5499C51.6464 2.78836 55.7669 6.9391 55.7669 12.0729V44.6235C55.7669 49.7573 51.6464 53.908 46.5499 53.908H12.9348C7.83833 53.908 3.71777 49.7573 3.71777 44.6235V12.0729C3.71777 6.9391 7.83833 2.78836 12.9348 2.78836Z" fill="#00005B"/>
<path d="M16.0796 38.6159V16.1145C16.0796 15.9616 16.1447 15.8742 16.2965 15.8742C16.6651 15.8742 17.0121 15.8742 17.5109 15.8523C18.0314 15.8305 18.5736 15.8305 19.1592 15.8086C19.7447 15.7868 20.3736 15.7868 21.0459 15.7649C21.7182 15.7431 22.3689 15.7431 23.0195 15.7431C24.7978 15.7431 26.2725 15.9616 27.487 16.4203C28.5714 16.7917 29.569 17.4034 30.3931 18.2117C31.0871 18.9108 31.6293 19.7628 31.9763 20.7021C32.3016 21.6197 32.4751 22.5591 32.4751 23.5421C32.4751 25.4209 32.0413 26.972 31.1738 28.1953C30.3064 29.4187 29.0919 30.3362 27.6822 30.8605C26.2075 31.4067 24.5809 31.6033 22.8026 31.6033C22.2821 31.6033 21.9351 31.6033 21.7182 31.5815C21.5014 31.5596 21.1978 31.5596 20.7857 31.5596V38.5722C20.8074 38.7251 20.6989 38.8562 20.5471 38.878H20.4604H16.3398C16.1663 38.878 16.0796 38.7907 16.0796 38.594V38.6159ZM20.8074 20.1123V27.4526C21.111 27.4744 21.3929 27.4963 21.6532 27.4963H22.8026C23.6484 27.4963 24.4942 27.3652 25.2966 27.103C25.9906 26.9064 26.5979 26.4913 27.075 25.9452C27.5304 25.399 27.7473 24.6563 27.7473 23.6951C27.769 23.0178 27.5955 22.3406 27.2485 21.7508C26.8798 21.1828 26.3593 20.7458 25.7304 20.5055C24.9279 20.1778 24.0605 20.0468 23.1713 20.0686C22.6074 20.0686 22.1086 20.0686 21.6966 20.0905C21.2628 20.0686 20.9592 20.0905 20.8074 20.1123Z" fill="#9999FF"/>
<path d="M35.5982 21.4012H39.3935C39.6103 21.4012 39.7838 21.5541 39.8489 21.7507C39.914 21.9255 39.9573 22.1003 39.979 22.2969C40.0224 22.5154 40.0658 22.7557 40.0875 22.9741C40.1091 23.2144 40.1308 23.4766 40.1308 23.7606C40.7814 22.996 41.5622 22.3624 42.4514 21.8818C43.449 21.3138 44.5984 21.0298 45.7478 21.0298C45.8996 21.008 46.0297 21.1172 46.0514 21.2701V21.3575V25.6175C46.0514 25.7923 45.943 25.8578 45.7044 25.8578C44.9237 25.8359 44.1213 25.9015 43.3622 26.0763C42.7333 26.2073 42.1261 26.4039 41.5405 26.6661C41.1284 26.8627 40.7381 27.1249 40.4345 27.4744V38.6159C40.4345 38.8343 40.3477 38.9217 40.1525 38.9217H35.8802C35.7067 38.9436 35.5548 38.8343 35.5332 38.6596V38.5722V26.4695C35.5332 25.9452 35.5332 25.399 35.5115 24.831C35.4898 24.263 35.4898 23.695 35.4681 23.127C35.4681 22.6246 35.4247 22.144 35.3814 21.6415C35.3597 21.5323 35.4247 21.423 35.5332 21.4012C35.5332 21.3794 35.5765 21.3794 35.5982 21.4012Z" fill="#9999FF"/>
</g>
</g>
<defs>
<filter id="filter0_dd_4280_85" x="-4.64916e-05" y="-4.29153e-06" width="59.6754" height="58.3694" filterUnits="userSpaceOnUse" color-interpolation-filters="sRGB">
<feFlood flood-opacity="0" result="BackgroundImageFix"/>
<feColorMatrix in="SourceAlpha" type="matrix" values="0 0 0 0 0 0 0 0 0 0 0 0 0 0 0 0 0 0 127 0" result="hardAlpha"/>
<feMorphology radius="0.929455" operator="dilate" in="SourceAlpha" result="effect1_dropShadow_4280_85"/>
<feOffset dy="0.929455"/>
<feGaussianBlur stdDeviation="1.39418"/>
<feColorMatrix type="matrix" values="0 0 0 0 0 0 0 0 0 0 0 0 0 0 0 0 0 0 0.15 0"/>
<feBlend mode="normal" in2="BackgroundImageFix" result="effect1_dropShadow_4280_85"/>
<feColorMatrix in="SourceAlpha" type="matrix" values="0 0 0 0 0 0 0 0 0 0 0 0 0 0 0 0 0 0 127 0" result="hardAlpha"/>
<feOffset dy="0.929455"/>
<feGaussianBlur stdDeviation="0.929455"/>
<feColorMatrix type="matrix" values="0 0 0 0 0 0 0 0 0 0 0 0 0 0 0 0 0 0 0.3 0"/>
<feBlend mode="normal" in2="effect1_dropShadow_4280_85" result="effect2_dropShadow_4280_85"/>
<feBlend mode="normal" in="SourceGraphic" in2="effect2_dropShadow_4280_85" result="shape"/>
</filter>
<clipPath id="clip0_4280_85">
<rect width="52.2398" height="50.9338" fill="white" transform="translate(3.71777 2.78836)"/>
</clipPath>
</defs>
</svg>
